<svg width="30" height="30" viewBox="0 0 30 30" fill="none" xmlns="http://www.w3.org/2000/svg">
<rect width="30" height="30" fill="white"/>
<path d="M25 15H19L17 18H13L11 15H5" stroke="#DB0011" stroke-width="2.5" stroke-linecap="round" stroke-linejoin="round"/>
<path d="M8.45 8.11L5 15V21C5 21.5304 5.21071 22.0391 5.58579 22.4142C5.96086 22.7893 6.46957 23 7 23H23C23.5304 23 24.0391 22.7893 24.4142 22.4142C24.7893 22.0391 25 21.5304 25 21V15L21.55 8.11C21.3844 7.77679 21.1292 7.49637 20.813 7.30028C20.4967 7.10419 20.1321 7.0002 19.76 7H10.24C9.86792 7.0002 9.50326 7.10419 9.18704 7.30028C8.87083 7.49637 8.61558 7.77679 8.45 8.11Z" stroke="#DB0011" stroke-width="2.5" stroke-linecap="round" stroke-linejoin="round"/>
</svg>
