<svg width="30" height="30" viewBox="0 0 30 30" fill="none" xmlns="http://www.w3.org/2000/svg">
<rect width="30" height="30" fill="white"/>
<path d="M7 6H23C23.5304 6 24.0391 6.21071 24.4142 6.58579C24.7893 6.96086 25 7.46957 25 8V14C25 16.6522 23.9464 19.1957 22.0711 21.0711C20.1957 22.9464 17.6522 24 15 24C13.6868 24 12.3864 23.7413 11.1732 23.2388C9.95991 22.7362 8.85752 21.9997 7.92893 21.0711C6.05357 19.1957 5 16.6522 5 14V8C5 7.46957 5.21071 6.96086 5.58579 6.58579C5.96086 6.21071 6.46957 6 7 6Z" fill="#DB0011"/>
<path d="M11 13L15 17L19 13" stroke="white" stroke-width="2" stroke-linecap="round" stroke-linejoin="round"/>
</svg>
