<svg width="30" height="30" viewBox="0 0 30 30" fill="none" xmlns="http://www.w3.org/2000/svg">
<rect width="30" height="30" fill="white"/>
<path d="M23.4355 9.66846H7.43555C6.33098 9.66846 5.43555 10.5639 5.43555 11.6685V21.6685C5.43555 22.773 6.33098 23.6685 7.43555 23.6685H23.4355C24.5401 23.6685 25.4355 22.773 25.4355 21.6685V11.6685C25.4355 10.5639 24.5401 9.66846 23.4355 9.66846Z" stroke="#DB0011" stroke-width="2.5" stroke-linecap="round" stroke-linejoin="round"/>
<path d="M19.4355 23.6685V7.66846C19.4355 7.13802 19.2248 6.62932 18.8498 6.25424C18.4747 5.87917 17.966 5.66846 17.4355 5.66846H13.4355C12.9051 5.66846 12.3964 5.87917 12.0213 6.25424C11.6463 6.62932 11.4355 7.13802 11.4355 7.66846V23.6685" stroke="#DB0011" stroke-width="2.5" stroke-linecap="round" stroke-linejoin="round"/>
</svg>
