<svg width="30" height="30" viewBox="0 0 30 30" fill="none" xmlns="http://www.w3.org/2000/svg">
<rect width="30" height="30" fill="white"/>
<path d="M23 12H14C12.8954 12 12 12.8954 12 14V23C12 24.1046 12.8954 25 14 25H23C24.1046 25 25 24.1046 25 23V14C25 12.8954 24.1046 12 23 12Z" fill="#DB0011"/>
<path d="M8 18H7C6.46957 18 5.96086 17.7893 5.58579 17.4142C5.21071 17.0391 5 16.5304 5 16V7C5 6.46957 5.21071 5.96086 5.58579 5.58579C5.96086 5.21071 6.46957 5 7 5H16C16.5304 5 17.0391 5.21071 17.4142 5.58579C17.7893 5.96086 18 6.46957 18 7V8" stroke="#DB0011" stroke-width="2" stroke-linecap="round" stroke-linejoin="round"/>
</svg>
