<svg width="30" height="30" viewBox="0 0 30 30" fill="none" xmlns="http://www.w3.org/2000/svg">
<rect width="30" height="30" fill="white"/>
<path d="M15 6H22C22.5304 6 23.0391 6.21071 23.4142 6.58579C23.7893 6.96086 24 7.46957 24 8V22C24 22.5304 23.7893 23.0391 23.4142 23.4142C23.0391 23.7893 22.5304 24 22 24H15M15 6H8C7.46957 6 6.96086 6.21071 6.58579 6.58579C6.21071 6.96086 6 7.46957 6 8V22C6 22.5304 6.21071 23.0391 6.58579 23.4142C6.96086 23.7893 7.46957 24 8 24H15M15 6V24" stroke="#DB0011" stroke-width="2.5" stroke-linecap="round" stroke-linejoin="round"/>
</svg>
