<svg width="30" height="30" viewBox="0 0 30 30" fill="none" xmlns="http://www.w3.org/2000/svg">
<rect width="30" height="30" fill="white"/>
<path d="M17 5H9C8.46957 5 7.96086 5.21071 7.58579 5.58579C7.21071 5.96086 7 6.46957 7 7V23C7 23.5304 7.21071 24.0391 7.58579 24.4142C7.96086 24.7893 8.46957 25 9 25H21C21.5304 25 22.0391 24.7893 22.4142 24.4142C22.7893 24.0391 23 23.5304 23 23V11L17 5Z" fill="#DB0011" stroke="#DB0011" stroke-width="2" stroke-linecap="round" stroke-linejoin="round"/>
<path d="M17 5V11H23" stroke="white" stroke-width="2" stroke-linecap="round" stroke-linejoin="round"/>
<path d="M19 16H11" stroke="white" stroke-width="2" stroke-linecap="round" stroke-linejoin="round"/>
<path d="M19 20H11" stroke="white" stroke-width="2" stroke-linecap="round" stroke-linejoin="round"/>
<path d="M13 12H12H11" stroke="white" stroke-width="2" stroke-linecap="round" stroke-linejoin="round"/>
</svg>
