<svg width="48" height="48" viewBox="0 0 48 48" fill="none" xmlns="http://www.w3.org/2000/svg">
<path d="M36 42C39.3137 42 42 39.3137 42 36C42 32.6863 39.3137 30 36 30C32.6863 30 30 32.6863 30 36C30 39.3137 32.6863 42 36 42Z" fill="#DB0011" stroke="#DB0011" stroke-width="2.5" stroke-linecap="round" stroke-linejoin="round"/>
<path d="M12 18C15.3137 18 18 15.3137 18 12C18 8.68629 15.3137 6 12 6C8.68629 6 6 8.68629 6 12C6 15.3137 8.68629 18 12 18Z" fill="#DB0011" stroke="#DB0011" stroke-width="2.5" stroke-linecap="round" stroke-linejoin="round"/>
<path d="M26 12H32C33.0609 12 34.0783 12.4214 34.8284 13.1716C35.5786 13.9217 36 14.9391 36 16V30" stroke="#DB0011" stroke-width="2.5" stroke-linecap="round" stroke-linejoin="round"/>
<path d="M12 18V42" stroke="#DB0011" stroke-width="2.5" stroke-linecap="round" stroke-linejoin="round"/>
</svg>
