<svg width="48" height="48" viewBox="0 0 48 48" fill="none" xmlns="http://www.w3.org/2000/svg">
<path d="M8 6H40C41.0609 6 42.0783 6.42143 42.8284 7.17157C43.5786 7.92172 44 8.93913 44 10V22C44 27.3043 41.8929 32.3914 38.1421 36.1421C34.3914 39.8929 29.3043 42 24 42C21.3736 42 18.7728 41.4827 16.3463 40.4776C13.9198 39.4725 11.715 37.9993 9.85786 36.1421C6.10714 32.3914 4 27.3043 4 22V10C4 8.93913 4.42143 7.92172 5.17157 7.17157C5.92172 6.42143 6.93913 6 8 6Z" fill="#DB0011" stroke="#DB0011" stroke-width="2.5" stroke-linecap="round" stroke-linejoin="round"/>
<path d="M16 20L24 28L32 20" stroke="white" stroke-width="2.5" stroke-linecap="round" stroke-linejoin="round"/>
</svg>
