<svg width="30" height="30" viewBox="0 0 30 30" fill="none" xmlns="http://www.w3.org/2000/svg">
<rect width="30" height="30" fill="white"/>
<path d="M24.2099 18.89C23.5737 20.3945 22.5787 21.7202 21.3118 22.7513C20.0449 23.7824 18.5447 24.4874 16.9424 24.8048C15.34 25.1221 13.6843 25.0421 12.1201 24.5718C10.5558 24.1015 9.13054 23.2551 7.96893 22.1067C6.80733 20.9582 5.94473 19.5428 5.45655 17.984C4.96837 16.4251 4.86948 14.7705 5.16851 13.1646C5.46755 11.5588 6.15541 10.0506 7.17196 8.77203C8.18851 7.49343 9.5028 6.48332 10.9999 5.83" stroke="#DB0011" stroke-width="2.5" stroke-linecap="round" stroke-linejoin="round"/>
<path d="M25 15C25 13.6868 24.7413 12.3864 24.2388 11.1732C23.7362 9.95991 22.9997 8.85752 22.0711 7.92893C21.1425 7.00035 20.0401 6.26375 18.8268 5.7612C17.6136 5.25866 16.3132 5 15 5V15H25Z" fill="#DB0011" stroke="#DB0011" stroke-linecap="round" stroke-linejoin="round"/>
</svg>
