<svg width="30" height="30" viewBox="0 0 30 30" fill="none" xmlns="http://www.w3.org/2000/svg">
<rect width="30" height="30" fill="white"/>
<path d="M15 11C19.9706 11 24 9.65685 24 8C24 6.34315 19.9706 5 15 5C10.0294 5 6 6.34315 6 8C6 9.65685 10.0294 11 15 11Z" stroke="#DB0011" stroke-width="2.5" stroke-linecap="round" stroke-linejoin="round"/>
<path d="M24 15C24 16.66 20 18 15 18C10 18 6 16.66 6 15" stroke="#DB0011" stroke-width="2.5" stroke-linecap="round" stroke-linejoin="round"/>
<path d="M6 8V22C6 23.66 10 25 15 25C20 25 24 23.66 24 22V8" stroke="#DB0011" stroke-width="2.5" stroke-linecap="round" stroke-linejoin="round"/>
</svg>
