<svg width="30" height="30" viewBox="0 0 30 30" fill="none" xmlns="http://www.w3.org/2000/svg">
<rect width="30" height="30" fill="white"/>
<path d="M22 6H8C6.89543 6 6 6.89543 6 8V22C6 23.1046 6.89543 24 8 24H22C23.1046 24 24 23.1046 24 22V8C24 6.89543 23.1046 6 22 6Z" fill="#DB0011"/>
<path d="M12.5 10H10.5C10.2239 10 10 10.2239 10 10.5V18.5C10 18.7761 10.2239 19 10.5 19H12.5C12.7761 19 13 18.7761 13 18.5V10.5C13 10.2239 12.7761 10 12.5 10Z" fill="white"/>
<path d="M19.5 10H17.5C17.2239 10 17 10.2239 17 10.5V14.5C17 14.7761 17.2239 15 17.5 15H19.5C19.7761 15 20 14.7761 20 14.5V10.5C20 10.2239 19.7761 10 19.5 10Z" fill="white"/>
</svg>
