<svg width="240" height="196" viewBox="0 0 240 196" fill="none" xmlns="http://www.w3.org/2000/svg">
<path fill-rule="evenodd" clip-rule="evenodd" d="M60 0L120 59L180 0H60ZM60 118H180L120 59L60 118ZM180 118L240 59L180 0V118ZM0 59L59.7334 117.903L60 118V0L0 59Z" fill="white"/>
<path fill-rule="evenodd" clip-rule="evenodd" d="M189.03 196C173.523 196 166.539 186.063 166.539 171.398C166.539 156.868 174.253 146 189.563 146C199.146 146 208.462 150.267 208.729 161.196H197.947C197.414 156.398 194.223 153.863 189.563 153.863C180.177 153.863 177.316 164.001 177.316 171.734C177.316 179.397 180.177 188.332 189.227 188.332C193.957 188.332 197.414 185.798 198.149 180.934H209C207.801 191.868 199.012 196 189.03 196ZM97.7463 196C87.3642 196 78.8464 191.868 78.6492 180.333H89.0954C89.2285 185.467 92.2223 188.532 97.9485 188.532C102.21 188.532 106.999 186.399 106.999 181.601C106.999 177.869 103.744 176.667 98.348 175.135L94.8857 174.133C87.3001 171.929 79.7786 168.999 79.7786 160.334C79.7786 149.601 89.7612 146 98.8807 146C108.262 146 116.316 149.266 116.385 159.934H105.934C105.539 155.531 103.009 152.997 98.0817 152.997C94.2198 152.997 90.3629 155.065 90.3629 159.333C90.3629 162.864 93.554 163.93 100.346 166.064L104.341 167.331C112.592 169.936 117.781 172.801 117.781 180.804C117.781 191.798 107.201 196 97.7463 196ZM141.435 187.931C146.293 187.931 151.087 186.799 151.087 180.934C151.087 175.2 146.959 173.862 142.037 173.862H133.785V187.936L141.435 187.931ZM140.439 166.996C145.03 166.996 149.686 166.064 149.686 160.465C149.686 155.466 145.297 154.134 141.105 154.134H133.785V167.001L140.439 166.996ZM123.669 146.932H140.37C145.632 146.932 147.758 147.067 149.82 147.533C155.679 148.865 160.073 152.666 160.073 159.132C160.073 165.333 156.147 168.533 150.485 170.001C157.011 171.203 161.8 174.534 161.8 181.671C161.8 192.599 151.018 195.134 142.564 195.134H123.665L123.669 146.932ZM62.2795 174.534H41.4511V195.134H31V146.932H41.4511V166.665H62.2795V146.932H72.7306V195.134H62.2795V174.534Z" fill="white"/>
</svg>
